<svg xmlns="http://www.w3.org/2000/svg" width="420mm" height="240mm" viewBox="0 0 1190.55 680.31"><defs><style>.a{fill:#e52521;}</style></defs><path class="a" d="M90.71,248.25h79.7V285h-31.9v34.86h29.86v35H138.51v40.42h35.08v36.79H90.71Z"/><path class="a" d="M298.94,328.29h-47.8v-32q0-13.92-1.53-17.39c-1-2.3-3.28-3.45-6.76-3.45q-5.9,0-7.49,4.2t-1.59,18.16v85.39q0,13.39,1.59,17.48t7.15,4.09q5.34,0,7-4.1t1.65-19.23V358.38h47.8v7.17q0,28.53-4,40.47T277.08,427q-13.79,9-34,9-21,0-34.63-7.61t-18-21.06Q186,393.81,186,366.78v-53.7q0-19.87,1.36-29.8a41.67,41.67,0,0,1,8.12-19.14q6.75-9.19,18.73-14.47t27.54-5.28q21.1,0,34.85,8.16t18.05,20.36q4.32,12.18,4.32,37.92Z"/><path class="a" d="M370.92,340.9v31.67H310.63V340.9Z"/><path class="a" d="M496.16,328.29h-47.8v-32q0-13.92-1.54-17.39t-6.75-3.45q-5.91,0-7.5,4.2T431,297.86v85.39q0,13.39,1.58,17.48t7.16,4.09q5.32,0,7-4.1t1.65-19.23V358.38h47.8v7.17q0,28.53-4,40.47T474.3,427q-13.8,9-34,9-21,0-34.63-7.61t-18.06-21.06q-4.42-13.45-4.42-40.48v-53.7q0-19.87,1.36-29.8a41.67,41.67,0,0,1,8.12-19.14q6.75-9.19,18.73-14.47t27.53-5.28q21.12,0,34.86,8.16t18,20.36q4.32,12.18,4.32,37.92Z"/><path class="a" d="M615.71,334.31v36.9q0,20.32-2,29.8a41.86,41.86,0,0,1-8.74,17.72,39.57,39.57,0,0,1-17.2,12.15,68.88,68.88,0,0,1-24.13,3.91q-15.21,0-25.77-3.35t-16.41-10.1A39.92,39.92,0,0,1,513.07,405q-2.49-9.6-2.49-28.78V337.6q0-21,4.54-32.81t16.35-19q11.81-7.15,30.2-7.15,15.44,0,26.51,4.6t17.09,12a42.43,42.43,0,0,1,8.23,15.22Q615.72,318.3,615.71,334.31ZM569.84,323q0-11.58-1.24-14.59t-5.34-3c-2.73,0-4.54,1-5.45,3s-1.36,6.87-1.36,14.59v68q0,10.66,1.36,13.9t5.34,3.24q4.08,0,5.39-2.95t1.3-12.72Z"/><path class="a" d="M735.84,281.4V432.07H689.17l.8-12.52A32,32,0,0,1,678.22,431a33,33,0,0,1-16.07,3.81q-10.33,0-17.14-3.63a23.54,23.54,0,0,1-10-9.65,35.22,35.22,0,0,1-4-12.55q-.79-6.52-.8-25.94V281.4H676V383.93q0,17.6,1.08,20.89t5.85,3.29c3.4,0,5.43-1.13,6.07-3.41s1-9.57,1-21.91V281.4Z"/><path class="a" d="M799,281.4l-.79,13.88a34.47,34.47,0,0,1,12.2-12.45A32.75,32.75,0,0,1,827,278.68q11.81,0,19.3,5.56a24.73,24.73,0,0,1,9.65,14q2.16,8.46,2.16,28.22V432.07H812.25V327.72q0-15.54-1-19c-.68-2.27-2.58-3.4-5.68-3.4-3.26,0-5.3,1.3-6.13,3.92s-1.25,9.59-1.25,20.94V432.07H752.3V281.4Z"/><path class="a" d="M975.29,338.28H932V320.91q0-9.07-1.47-12.32a5.46,5.46,0,0,0-5.45-3.23q-4,0-5.34,2.84t-1.36,12.71V392q0,8.06,2,12.09t6,4a6.2,6.2,0,0,0,6.3-4.2q1.65-4.2,1.65-15.89V370.07h40.87q-.12,18.06-1.3,27.08t-7.61,18.51A40.68,40.68,0,0,1,949.63,430q-10.33,4.81-25.55,4.82-19.41,0-30.76-6.64a36.57,36.57,0,0,1-16.07-18.62q-4.71-12-4.71-34v-42.8q0-19.19,3.86-29t16.46-17.43q12.6-7.66,30.66-7.66t30.65,7.6q12.72,7.62,16.92,19.19T975.29,338.28Z"/><path class="a" d="M1036.15,248.25v24H988.91v-24Zm0,33.15V432.07H988.91V281.4Z"/><path class="a" d="M1099.84,248.25V432.07h-47.23V248.25Z"/></svg>